<svg width="80" height="80" fill="none" xmlns="http://www.w3.org/2000/svg"><g clip-path="url(#no-results-icon)"><path d="M62.699 19.915V68.04a4.692 4.692 0 01-4.688 4.687H14.716a4.692 4.692 0 01-4.688-4.687V4.687A4.692 4.692 0 0114.716 0h28.068L62.7 19.915z" fill="#394D66"/><path d="M22.898 36.52H49.83v2.997H22.898V36.52zM22.898 43.196H49.83v2.998H22.898v-2.998zM22.898 49.886H49.83v2.997H22.898v-2.997zM22.898 56.563H42.06v2.997H22.898v-2.998z" fill="#fff"/><path opacity=".19" d="M45.497 19.162L62.7 33.097V20l-9.744-5.653-7.458 4.815z" fill="#000"/><path d="M62.699 19.915H47.472a4.692 4.692 0 01-4.688-4.688V0L62.7 19.915z" fill="#8799AF"/></g><g clip-path="url(#no-results-icon-1)"><path d="M63.994 60.426l-3.568 3.568a.885.885 0 01-1.253 0l-2.266-2.266 4.82-4.82 2.267 2.265a.886.886 0 010 1.253z" fill="#892C0F"/><path d="M60.758 63.656l2.892-2.892 2.892 2.892-2.892 2.892-2.892-2.892z" fill="#B03E19"/><path d="M79.74 76.172l-3.568 3.569a.885.885 0 01-1.252 0L63.318 68.138a.885.885 0 010-1.252l3.568-3.568a.885.885 0 011.252 0L79.741 74.92a.885.885 0 010 1.252z" fill="#FF8446"/><path d="M79.74 76.172l-.98.981L65.905 64.3l.981-.981a.885.885 0 011.252 0L79.741 74.92a.885.885 0 010 1.252z" fill="#CD4827"/><path d="M49.998 63.632c7.53 0 13.634-6.104 13.634-13.634s-6.104-13.634-13.634-13.634-13.634 6.104-13.634 13.634 6.104 13.634 13.634 13.634z" fill="#FF8446"/><path d="M58.243 39.14a13.574 13.574 0 012.776 8.245c0 7.53-6.104 13.634-13.634 13.634a13.573 13.573 0 01-8.245-2.776 13.612 13.612 0 0010.858 5.39c7.53 0 13.634-6.105 13.634-13.635 0-4.431-2.114-8.368-5.389-10.858z" fill="#CD4827"/><path d="M49.998 59.996c5.522 0 9.998-4.476 9.998-9.998 0-5.522-4.476-9.998-9.998-9.998C44.476 40 40 44.475 40 49.997c0 5.522 4.476 9.998 9.998 9.998z" fill="#E4F6FF"/><path d="M56.036 42.028a9.954 9.954 0 012.029 6.038c0 5.522-4.477 9.999-9.999 9.999a9.954 9.954 0 01-6.038-2.03 9.982 9.982 0 007.97 3.961c5.522 0 9.998-4.476 9.998-9.998a9.983 9.983 0 00-3.96-7.97z" fill="#D3EFFB"/></g><defs><clipPath id="no-results-icon"><path fill="#fff" d="M0 0h72.727v72.727H0z"/></clipPath><clipPath id="no-results-icon-1"><path fill="#fff" transform="translate(36.364 36.364)" d="M0 0h43.636v43.636H0z"/></clipPath></defs></svg>
